<?xml version="1.0" standalone="no"?><!DOCTYPE svg PUBLIC "-//W3C//DTD SVG 1.1//EN" "http://www.w3.org/Graphics/SVG/1.1/DTD/svg11.dtd"><svg t="1640330537566" class="icon" viewBox="0 0 1024 1024" version="1.1" xmlns="http://www.w3.org/2000/svg" p-id="3722" xmlns:xlink="http://www.w3.org/1999/xlink" width="46" height="46"><defs><style type="text/css"></style></defs><path d="M331.306667 170.666667a160.64 160.64 0 0 1 160.597333 160.64v160.597333H331.306667a160.64 160.64 0 0 1 0-321.237333z" fill="#FF6473" p-id="3723"></path><path d="M692.693333 170.666667a160.64 160.64 0 0 0-160.597333 160.64v160.597333h160.597333a160.64 160.64 0 0 0 0-321.237333z" fill="#FFC900" p-id="3724"></path><path d="M692.693333 853.333333a160.64 160.64 0 0 1-160.597333-160.64v-160.597333h160.597333a160.64 160.64 0 0 1 0 321.237333z" fill="#00D535" p-id="3725"></path><path d="M331.306667 853.333333a160.64 160.64 0 0 0 160.597333-160.64v-160.597333H331.306667a160.64 160.64 0 1 0 0 321.237333z" fill="#53AFFE" p-id="3726"></path></svg>